name C:\Users\u0101727\Documents\MyRepositories\upper-imu-dc\OpenSim\subject0\MA\MA_Splines\angle_in_n6_dof6_0.mot
datacolumns 7
datarows 33
range 0.01000000 0.33000000
endheader 
time	clav_prot	clav_elev	scapula_abduction	scapula_elevation	scapula_upward_rot	scapula_winging	
          0.01000000	        -44.34577705	         -7.65248351	        -30.88730313	         -7.82036939	          8.23102828	        -12.40251587	
          0.02000000	        -38.85780873	         -7.65248351	        -30.88730313	         -7.82036939	          8.23102828	        -12.40251587	
          0.03000000	        -33.36984042	         -7.65248351	        -30.88730313	         -7.82036939	          8.23102828	        -12.40251587	
          0.04000000	        -27.88187210	         -7.65248351	        -30.88730313	         -7.82036939	          8.23102828	        -12.40251587	
          0.05000000	        -22.39390379	         -7.65248351	        -30.88730313	         -7.82036939	          8.23102828	        -12.40251587	
          0.06000000	        -16.90593547	         -7.65248351	        -30.88730313	         -7.82036939	          8.23102828	        -12.40251587	
          0.07000000	        -44.34577705	         -2.74924671	        -30.88730313	         -7.82036939	          8.23102828	        -12.40251587	
          0.08000000	        -38.85780873	         -2.74924671	        -30.88730313	         -7.82036939	          8.23102828	        -12.40251587	
          0.09000000	        -33.36984042	         -2.74924671	        -30.88730313	         -7.82036939	          8.23102828	        -12.40251587	
          0.10000000	        -27.88187210	         -2.74924671	        -30.88730313	         -7.82036939	          8.23102828	        -12.40251587	
          0.11000000	        -22.39390379	         -2.74924671	        -30.88730313	         -7.82036939	          8.23102828	        -12.40251587	
          0.12000000	        -16.90593547	         -2.74924671	        -30.88730313	         -7.82036939	          8.23102828	        -12.40251587	
          0.13000000	        -44.34577705	          2.15399008	        -30.88730313	         -7.82036939	          8.23102828	        -12.40251587	
          0.14000000	        -38.85780873	          2.15399008	        -30.88730313	         -7.82036939	          8.23102828	        -12.40251587	
          0.15000000	        -33.36984042	          2.15399008	        -30.88730313	         -7.82036939	          8.23102828	        -12.40251587	
          0.16000000	        -27.88187210	          2.15399008	        -30.88730313	         -7.82036939	          8.23102828	        -12.40251587	
          0.17000000	        -22.39390379	          2.15399008	        -30.88730313	         -7.82036939	          8.23102828	        -12.40251587	
          0.18000000	        -16.90593547	          2.15399008	        -30.88730313	         -7.82036939	          8.23102828	        -12.40251587	
          0.19000000	        -44.34577705	          7.05722688	        -30.88730313	         -7.82036939	          8.23102828	        -12.40251587	
          0.20000000	        -38.85780873	          7.05722688	        -30.88730313	         -7.82036939	          8.23102828	        -12.40251587	
          0.21000000	        -33.36984042	          7.05722688	        -30.88730313	         -7.82036939	          8.23102828	        -12.40251587	
          0.22000000	        -27.88187210	          7.05722688	        -30.88730313	         -7.82036939	          8.23102828	        -12.40251587	
          0.23000000	        -22.39390379	          7.05722688	        -30.88730313	         -7.82036939	          8.23102828	        -12.40251587	
          0.24000000	        -16.90593547	          7.05722688	        -30.88730313	         -7.82036939	          8.23102828	        -12.40251587	
          0.25000000	        -44.34577705	         11.96046367	        -30.88730313	         -7.82036939	          8.23102828	        -12.40251587	
          0.26000000	        -38.85780873	         11.96046367	        -30.88730313	         -7.82036939	          8.23102828	        -12.40251587	
          0.27000000	        -33.36984042	         11.96046367	        -30.88730313	         -7.82036939	          8.23102828	        -12.40251587	
          0.28000000	        -27.88187210	         11.96046367	        -30.88730313	         -7.82036939	          8.23102828	        -12.40251587	
          0.29000000	        -22.39390379	         11.96046367	        -30.88730313	         -7.82036939	          8.23102828	        -12.40251587	
          0.30000000	        -16.90593547	         11.96046367	        -30.88730313	         -7.82036939	          8.23102828	        -12.40251587	
          0.31000000	        -44.34577705	         16.86370047	        -30.88730313	         -7.82036939	          8.23102828	        -12.40251587	
          0.32000000	        -38.85780873	         16.86370047	        -30.88730313	         -7.82036939	          8.23102828	        -12.40251587	
          0.33000000	        -33.36984042	         16.86370047	        -30.88730313	         -7.82036939	          8.23102828	        -12.40251587	
